<?xml version="1.0" encoding="UTF-8" standalone="no"?>
<!-- Created with Inkscape (http://www.inkscape.org/) -->

<svg
   xmlns:dc="http://purl.org/dc/elements/1.1/"
   xmlns:cc="http://creativecommons.org/ns#"
   xmlns:rdf="http://www.w3.org/1999/02/22-rdf-syntax-ns#"
   xmlns:svg="http://www.w3.org/2000/svg"
   xmlns="http://www.w3.org/2000/svg"
   xmlns:sodipodi="http://sodipodi.sourceforge.net/DTD/sodipodi-0.dtd"
   xmlns:inkscape="http://www.inkscape.org/namespaces/inkscape"
   version="1.0"
   width="733"
   height="733"
   id="svg1923"
   inkscape:version="0.48.0 r9654"
   sodipodi:docname="instantfun.svg">
  <metadata
     id="metadata15">
    <rdf:RDF>
      <cc:Work
         rdf:about="">
        <dc:format>image/svg+xml</dc:format>
        <dc:type
           rdf:resource="http://purl.org/dc/dcmitype/StillImage" />
        <dc:title />
      </cc:Work>
    </rdf:RDF>
  </metadata>
  <sodipodi:namedview
     pagecolor="#ffffff"
     bordercolor="#666666"
     borderopacity="1"
     objecttolerance="10"
     gridtolerance="10"
     guidetolerance="10"
     inkscape:pageopacity="0"
     inkscape:pageshadow="2"
     inkscape:window-width="1313"
     inkscape:window-height="824"
     id="namedview13"
     showgrid="false"
     inkscape:zoom="1.0225555"
     inkscape:cx="411.91918"
     inkscape:cy="306.06763"
     inkscape:window-x="125"
     inkscape:window-y="24"
     inkscape:window-maximized="0"
     inkscape:current-layer="svg1923"
     showguides="true"
     inkscape:guide-bbox="true" />
  <defs
     id="defs1926" />
  <path
     style="fill:#dfd8c8;fill-opacity:1;stroke:none"
     d="M 366.5,86.71875 C 215.23974,86.71875 86.769709,215.23967 86.8125,366.5 86.769709,517.76033 215.23974,646.28125 366.5,646.28125 517.76026,646.28125 646.2303,517.76033 646.1875,366.5 646.2303,215.23967 517.76026,86.71875 366.5,86.71875 z m 90.59375,108.96875 c 19.05381,-0.23605 37.13168,5.63259 53.59375,15.75 l 0.0937,0.0625 0.125,0.0625 c 22.89151,15.43198 39.71806,43.03672 44.46875,72.3125 1.77478,10.93693 1.76894,27.94311 0,38.84375 -0.71579,4.41089 -1.95668,10.02057 -3.28125,15.0625 -0.66229,2.52097 -1.35204,4.90319 -2.03125,6.9375 -0.67921,2.03431 -1.14633,3.54448 -2.3125,5.375 l -1.78125,2.8125 -3.34375,0 -83.375,0.125 c -38.71621,0 -59.27641,-0.0238 -70.375,-0.21875 -5.5493,-0.0974 -8.66278,-0.21351 -10.90625,-0.46875 -1.12174,-0.12762 -2.02312,-0.25408 -3.25,-0.71875 -1.22688,-0.46467 -3.10644,-1.91645 -3.84375,-3.3125 -1.51586,-2.87029 -2.43143,-6.19588 -3.71875,-10.65625 -1.28732,-4.46037 -2.54783,-9.41877 -3.3125,-13.34375 l -0.0312,-0.0625 0,-0.0625 c -4.32277,-25.29655 -0.0694,-50.21468 10.25,-73.125 l 0.0625,-0.0937 0.0312,-0.125 C 387.21615,224.72287 410.13912,205.56501 437.5,198.0625 l 0.15625,-0.0312 0.125,-0.0312 c 6.51721,-1.47772 12.96237,-2.2338 19.3125,-2.3125 z m -265.90625,0.25 c 6.86301,-0.0137 13.74197,0.7339 20.4375,2.0625 l 0.25,0.0625 0.25,0.0625 c 13.22248,3.77446 24.93878,10.60153 35.4375,20.5 15.61164,14.71906 26.48656,35.01295 31.75,58.71875 l 0.0312,0.1875 0.0312,0.21875 c 2.634,16.95481 3.44078,35.21249 -0.4375,52.65625 l -0.0625,0.21875 -0.0625,0.21875 -5.25,17.4375 -1.3125,4.3125 -4.53125,0.0312 -71,0.1875 c -19.53836,0.0544 -37.40732,0.0131 -50.46875,-0.0625 -6.53071,-0.0378 -11.86611,-0.0922 -15.625,-0.15625 -1.87944,-0.0319 -3.35023,-0.0537 -4.4375,-0.0937 -0.54363,-0.02 -0.99689,-0.0329 -1.40625,-0.0625 -0.20468,-0.0148 -0.36657,-0.0243 -0.65625,-0.0625 -0.14484,-0.0191 -0.32271,-0.0583 -0.625,-0.125 -0.30229,-0.0667 -0.54194,0.14834 -2.0625,-0.84375 l -1.375,-0.90625 -0.75,-1.5 c -11.67201,-23.31869 -11.18796,-50.55598 -7.65625,-74.375 l 0.0312,-0.1875 0.0625,-0.1875 c 5.10467,-23.8133 15.87141,-45.31996 30.40625,-59.9375 l 0.0312,-0.0625 0.0625,-0.0625 c 13.71488,-13.08768 31.40513,-18.2149 48.9375,-18.25 z m -1.5,27.09375 c -0.59445,0.0165 -1.11278,0.0539 -1.5625,0.0937 -15.91049,1.80347 -26.05978,8.91985 -33.78125,19.53125 -7.69491,10.57491 -12.6175,24.8662 -16.09375,40.03125 -0.004,0.0235 0.004,0.07 0,0.0937 -1.03097,6.00588 -1.20631,16.84615 -0.59375,26.28125 0.30749,4.73614 0.78102,9.18442 1.375,12.5 0.21024,1.17357 0.55002,2.01471 0.84375,2.875 0.49644,0.0286 0.74428,0.0663 1.34375,0.0937 3.26195,0.14883 7.97147,0.2753 13.59375,0.375 11.24456,0.19945 26.19346,0.29125 41.125,0.28125 14.93154,-0.01 29.84904,-0.12977 41.09375,-0.34375 5.62236,-0.10699 10.33164,-0.25324 13.59375,-0.40625 0.64148,-0.03 0.91472,-0.0623 1.4375,-0.0937 0.26421,-0.80553 0.53137,-1.59968 0.71875,-2.71875 0.53036,-3.16738 0.91999,-7.40158 1.09375,-11.96875 0.34752,-9.13434 -0.20219,-19.73993 -1.5625,-26.15625 -0.3287,-1.55042 -0.54204,-2.24338 -0.8125,-3.40625 -14.09657,12.15716 -36.42725,11.30958 -49.25,-2.59375 l -0.125,-0.0937 -0.0937,-0.125 C 188.45581,261.05214 190.40697,238.84401 205.3125,225 c -0.24438,-0.0627 -0.34148,-0.127 -0.59375,-0.1875 -4.70102,-1.12791 -10.81048,-1.89878 -15.03125,-1.78125 z m 269.21875,0.0312 c -31.69767,0.35938 -61.26692,26.06732 -68,64.65625 -0.93841,5.37825 -1.0208,14.11491 -0.375,22.21875 0.47692,5.98466 1.40507,11.16385 2.3125,15 l 66.25,0.125 0.0312,0 c 29.07137,-6e-5 46.95809,-0.053 57.5625,-0.21875 5.01524,-0.0784 8.19268,-0.18876 10.28125,-0.3125 0.21457,-0.615 0.43146,-1.13513 0.59375,-1.9375 0.53362,-2.63819 0.98465,-6.20824 1.28125,-10.0625 0.59321,-7.70851 0.49848,-16.7177 -0.375,-22.375 -0.67147,-4.34896 -1.49578,-7.84791 -2.3125,-10.84375 -17.52301,15.73303 -46.13383,10.73816 -56.6875,-10.6875 l -0.0312,-0.0312 -0.0312,-0.0312 c -7.12611,-14.99206 -3.14723,-31.23198 7.9375,-42.28125 l 0,-0.0312 0.0312,0 c 0.12512,-0.12192 0.18979,-0.19122 0.3125,-0.3125 -6.29304,-1.96576 -12.59275,-2.9452 -18.78125,-2.875 z m 71.75,52.28125 c 0.0325,-0.0181 -0.1701,0.10937 -0.40625,0.28125 0.33525,-0.12526 0.38625,-0.27015 0.40625,-0.28125 z M 128.0625,392.3125 l 6.3125,0 199.84375,0 199.84375,0 3.875,0 1.65625,3.5 c 5.41932,11.48129 8.33246,23.55676 10.78125,35.28125 l 0.0312,0.1875 0.0312,0.1875 c 5.89333,40.33805 -2.27084,72.65401 -20.21875,99.34375 -17.94791,26.68974 -45.25559,47.77738 -77.375,67.59375 l -0.1875,0.125 -0.25,0.125 c -37.83901,19.30159 -79.14898,24.81167 -120.53125,22.4375 l -0.34375,0 -0.34375,-0.0625 c -103.69723,-17.88542 -165.97531,-99.11798 -181.875,-199.25 l -0.0937,-0.59375 0.0312,-0.625 0,-0.125 -14.65625,-0.5625 -5.65625,-0.25 -0.1875,-5.65625 -0.5,-15.375 z m 50.71875,30.90625 c 1.38015,41.4101 32.05089,89.30013 59.4375,120.25 0.009,0.0105 0.0223,0.0208 0.0312,0.0312 15.82514,17.4045 35.02865,30.19571 56.28125,39.0625 2.15176,-7.04604 6.29833,-18.28336 14.4375,-30.625 12.06096,-18.28835 32.70842,-38.20094 66.03125,-46.0625 7.28922,-1.71968 14.33772,-2.54443 21.09375,-2.65625 46.03959,-0.76198 76.39905,30.12113 85.5625,40.71875 0.0212,-0.0194 0.01,-0.0117 0.0312,-0.0312 l 0.0312,-0.0312 c 22.04334,-19.78969 36.86165,-45.23048 40.875,-69.21875 1.24415,-7.43643 1.35297,-19.09264 0.46875,-29.8125 -0.68321,-8.28297 -2.12936,-16.22087 -3.53125,-21.0625 z"
     id="path5088"
     inkscape:connector-curvature="0"
     sodipodi:nodetypes="scscsscccssssccccssscscccccccccsscccsccccccccccscsscccccccccccsccsccssccscsccssscccccccsssccsscsssccccccccsccccccccccccscccccccccccccccccccssscccsscc" />
  <path
     style="opacity:0.6;fill:none;stroke:#3a3935;stroke-width:12.19999886;stroke-miterlimit:4;stroke-opacity:1;stroke-dasharray:none"
     d="M 366.5,80.626889 C 211.94248,80.626889 80.661116,211.94238 80.70484,366.5 80.661116,521.05762 211.94248,652.37311 366.5,652.37311 521.05752,652.37311 652.33889,521.05762 652.29516,366.5 652.33889,211.94238 521.05752,80.626889 366.5,80.626889 z m 90.68398,121.160861 c 17.76385,-0.22007 34.63611,5.20694 50.30493,14.83683 21.20277,14.29354 37.38331,40.64574 41.86014,68.23385 1.59288,9.81598 1.58711,27.11703 0,36.89721 -1.3362,8.23399 -4.81437,22.04184 -6.72985,25.04853 l -83.38249,0.12992 c -77.42788,0 -82.24389,-0.0864 -82.96675,-1.4551 -1.50698,-2.85347 -5.03306,-15.07798 -6.44401,-22.32022 -4.09999,-23.99284 -0.10398,-47.60592 9.79594,-69.58501 12.31825,-24.63752 33.85669,-42.59691 59.50325,-49.62934 6.10394,-1.38401 12.13756,-2.08332 18.05884,-2.15667 z m -265.9717,0.25984 c 6.4088,-0.0128 12.88481,0.69008 19.22812,1.94879 12.28872,3.50791 23.06952,9.75886 32.94765,19.07222 14.60152,13.7667 24.92068,32.91155 29.95949,55.60565 2.55964,16.47616 3.2772,34.03246 -0.36377,50.40886 l -5.27474,17.43523 -71.01414,0.18189 c -39.04783,0.10863 -71.40715,-0.0788 -71.92357,-0.41574 -10.77329,-21.52319 -10.50897,-47.54478 -7.06763,-70.75429 4.8904,-22.81372 15.29955,-43.3895 28.76423,-56.93084 12.40533,-11.83801 28.36633,-16.51897 44.74436,-16.55177 z m -1.68896,14.8888 c -0.67165,0.0187 -1.30505,0.0491 -1.92281,0.10394 -35.17973,3.89746 -48.21092,33.26999 -55.34581,64.59609 -2.43097,13.98094 -0.47677,44.07367 3.14406,48.43408 1.38034,1.66229 119.67779,1.58566 121.05922,-0.0779 3.85019,-4.63661 4.93054,-33.08136 1.81887,-47.75849 -2.79431,-13.18018 -3.4801,-13.82102 -8.83454,-8.28888 -11.23971,11.6127 -31.73596,11.33543 -42.71761,-0.57165 -12.34933,-14.76332 -10.17219,-33.89612 4.52121,-45.67978 2.8545,-1.89424 4.56998,-3.59876 4.41727,-4.39129 -0.58317,-3.02644 -16.06496,-6.64661 -26.13986,-6.36607 z m 269.32363,0.0259 c -34.93593,0.39609 -66.77329,28.58167 -73.95031,69.71494 -2.21096,12.67155 -0.0215,35.89639 3.19602,44.3546 l 71.01413,0.12996 c 58.21405,0 71.51641,-0.22018 72.26137,-1.11731 3.31613,-3.99347 5.14845,-27.83885 3.14405,-40.82078 -1.68014,-10.88182 -4.33477,-19.51395 -6.02827,-19.51395 -0.7077,0 -2.91816,1.66712 -4.88499,3.68972 -14.47153,14.88185 -39.56045,11.03228 -48.66793,-7.45739 -6.08906,-12.8103 -2.91215,-25.75292 6.70386,-35.33817 3.56366,-3.47256 6.25329,-6.70762 5.95032,-7.19756 -0.30297,-0.48993 -3.36195,-1.82021 -6.78181,-2.96217 -7.32645,-2.44644 -14.70558,-3.56405 -21.95644,-3.48185 z m -324.48755,181.44592 199.86854,0 199.84255,0 c 5.07218,10.74584 7.92213,22.35085 10.34161,33.93503 11.42623,78.20901 -31.20072,121.65105 -94.76346,160.86667 -36.65886,18.6996 -76.80988,24.13049 -117.42147,21.80054 C 231.15319,597.57748 170.92568,519.05966 155.32845,420.83244 l 0.28582,-6.23615 -20.76117,-0.83149 z m 38.24837,18.70844 c -1.67412,45.82331 31.83792,97.3929 61.08827,130.43942 18.06134,19.87577 40.33457,34.02455 64.85593,43.21131 0.89265,-4.24125 14.55314,-64.03264 77.84791,-78.96522 6.85849,-1.61806 13.46894,-2.38968 19.79977,-2.49446 51.55104,-0.8532 84.70768,43.02942 84.70768,43.02942 0,0 0.0421,0.50677 4.88498,-3.92358 22.95488,-20.60804 38.52498,-47.07395 42.82155,-72.75505 2.78961,-16.67386 0.24772,-47.48374 -4.78105,-57.97019 z"
     id="path3161"
     inkscape:connector-curvature="0"
     sodipodi:nodetypes="scscsscssccscccsscscccccccssccssssccssscccssssccssscccccccccccccssccscccc" />
</svg>
