<?xml version="1.0" encoding="UTF-8" standalone="no"?>
<!-- Created with Inkscape (http://www.inkscape.org/) -->

<svg
   xmlns:dc="http://purl.org/dc/elements/1.1/"
   xmlns:cc="http://creativecommons.org/ns#"
   xmlns:rdf="http://www.w3.org/1999/02/22-rdf-syntax-ns#"
   xmlns:svg="http://www.w3.org/2000/svg"
   xmlns="http://www.w3.org/2000/svg"
   xmlns:sodipodi="http://sodipodi.sourceforge.net/DTD/sodipodi-0.dtd"
   xmlns:inkscape="http://www.inkscape.org/namespaces/inkscape"
   version="1.0"
   width="733"
   height="733"
   id="svg1923"
   inkscape:version="0.48.0 r9654"
   sodipodi:docname="instantfun.svg">
  <metadata
     id="metadata15">
    <rdf:RDF>
      <cc:Work
         rdf:about="">
        <dc:format>image/svg+xml</dc:format>
        <dc:type
           rdf:resource="http://purl.org/dc/dcmitype/StillImage" />
        <dc:title />
      </cc:Work>
    </rdf:RDF>
  </metadata>
  <sodipodi:namedview
     pagecolor="#ffffff"
     bordercolor="#666666"
     borderopacity="1"
     objecttolerance="10"
     gridtolerance="10"
     guidetolerance="10"
     inkscape:pageopacity="0"
     inkscape:pageshadow="2"
     inkscape:window-width="1313"
     inkscape:window-height="835"
     id="namedview13"
     showgrid="false"
     inkscape:zoom="0.51127775"
     inkscape:cx="-166.75336"
     inkscape:cy="236.32897"
     inkscape:window-x="377"
     inkscape:window-y="105"
     inkscape:window-maximized="0"
     inkscape:current-layer="svg1923" />
  <defs
     id="defs1926" />
  <path
     style="fill:#f2f2f2;fill-opacity:1;stroke:none;opacity:0.6"
     d="M 366.5,86.626888 C 211.94248,86.626888 86.661116,211.94238 86.70484,366.5 86.661116,521.05762 211.94248,646.37311 366.5,646.37311 521.05752,646.37311 646.33889,521.05762 646.29516,366.5 646.33889,211.94238 521.05752,86.626888 366.5,86.626888 z m 90.68398,115.160862 c 17.76385,-0.22007 34.63611,5.20694 50.30493,14.83683 21.20277,14.29354 37.38331,40.64574 41.86014,68.23385 1.59288,9.81598 1.58711,27.11703 0,36.89721 -1.3362,8.23399 -4.81437,22.04184 -6.72985,25.04853 l -83.38249,0.12992 c -77.42788,0 -82.24389,-0.0864 -82.96675,-1.4551 -1.50698,-2.85347 -5.03306,-15.07798 -6.44401,-22.32022 -4.09999,-23.99284 -0.10398,-47.60592 9.79594,-69.58501 12.31825,-24.63752 33.85669,-42.59691 59.50325,-49.62934 6.10394,-1.38401 12.13756,-2.08332 18.05884,-2.15667 z m -265.9717,0.25984 c 6.4088,-0.0128 12.88481,0.69008 19.22812,1.94879 12.28872,3.50791 23.06952,9.75886 32.94765,19.07222 14.60152,13.7667 24.92068,32.91155 29.95949,55.60565 2.55964,16.47616 3.2772,34.03246 -0.36377,50.40886 l -5.27474,17.43523 -71.01414,0.18189 c -39.04783,0.10863 -71.40715,-0.0788 -71.92357,-0.41574 -10.77329,-21.52319 -10.50897,-47.54478 -7.06763,-70.75429 4.8904,-22.81372 15.29955,-43.3895 28.76423,-56.93084 12.40533,-11.83801 28.36633,-16.51897 44.74436,-16.55177 z m -1.68896,14.8888 c -0.67165,0.0187 -1.30505,0.0491 -1.92281,0.10394 -35.17973,3.89746 -48.21092,33.26999 -55.34581,64.59609 -2.43097,13.98094 -0.47677,44.07367 3.14406,48.43408 1.38034,1.66229 119.67779,1.58566 121.05922,-0.0779 3.85019,-4.63661 4.93054,-33.08136 1.81887,-47.75849 -2.79431,-13.18018 -3.4801,-13.82102 -8.83454,-8.28888 -11.23971,11.6127 -31.73596,11.33543 -42.71761,-0.57165 -12.34933,-14.76332 -10.17219,-33.89612 4.52121,-45.67978 2.8545,-1.89424 4.56998,-3.59876 4.41727,-4.39129 -0.58317,-3.02644 -16.06496,-6.64661 -26.13986,-6.36607 z m 269.32363,0.0259 c -34.93593,0.39609 -66.77329,28.58167 -73.95031,69.71494 -2.21096,12.67155 -0.0215,35.89639 3.19602,44.3546 l 71.01413,0.12996 c 58.21405,0 71.51641,-0.22018 72.26137,-1.11731 3.31613,-3.99347 5.14845,-27.83885 3.14405,-40.82078 -1.68014,-10.88182 -4.33477,-19.51395 -6.02827,-19.51395 -0.7077,0 -2.91816,1.66712 -4.88499,3.68972 -14.47153,14.88185 -39.56045,11.03228 -48.66793,-7.45739 -6.08906,-12.8103 -2.91215,-25.75292 6.70386,-35.33817 3.56366,-3.47256 6.25329,-6.70762 5.95032,-7.19756 -0.30297,-0.48993 -3.36195,-1.82021 -6.78181,-2.96217 -7.32645,-2.44644 -14.70558,-3.56405 -21.95644,-3.48185 z m -324.48755,181.44592 199.86854,0 199.84255,0 c 5.07218,10.74584 7.92213,22.35085 10.34161,33.93503 11.42623,78.20901 -31.20072,121.65105 -94.76346,160.86667 -36.65886,18.6996 -76.80988,24.13049 -117.42147,21.80054 C 231.15319,597.57748 170.92568,519.05966 155.32845,420.83244 l 0.28582,-6.23615 -20.76117,-0.83149 z m 38.24837,18.70844 c -1.67412,45.82331 31.83792,97.3929 61.08827,130.43942 18.06134,19.87577 40.33457,34.02455 64.85593,43.21131 0.89265,-4.24125 14.55314,-64.03264 77.84791,-78.96522 6.85849,-1.61806 13.46894,-2.38968 19.79977,-2.49446 51.55104,-0.8532 84.70768,43.02942 84.70768,43.02942 0,0 0.0421,0.50677 4.88498,-3.92358 22.95488,-20.60804 38.52498,-47.07395 42.82155,-72.75505 2.78961,-16.67386 0.24772,-47.48374 -4.78105,-57.97019 z"
     id="path3161"
     inkscape:connector-curvature="0"
     sodipodi:nodetypes="scscsscssccscccsscscccccccssccssssccssssccssssccssscccccccccccccssccscc" />
</svg>
