<?xml version="1.0" encoding="UTF-8" standalone="no"?>
<!-- Created with Inkscape (http://www.inkscape.org/) -->

<svg
   xmlns:dc="http://purl.org/dc/elements/1.1/"
   xmlns:cc="http://creativecommons.org/ns#"
   xmlns:rdf="http://www.w3.org/1999/02/22-rdf-syntax-ns#"
   xmlns:svg="http://www.w3.org/2000/svg"
   xmlns="http://www.w3.org/2000/svg"
   xmlns:sodipodi="http://sodipodi.sourceforge.net/DTD/sodipodi-0.dtd"
   xmlns:inkscape="http://www.inkscape.org/namespaces/inkscape"
   version="1.0"
   width="733"
   height="733"
   id="svg1923"
   inkscape:version="0.48.0 r9654"
   sodipodi:docname="instantfun.svg">
  <metadata
     id="metadata15">
    <rdf:RDF>
      <cc:Work
         rdf:about="">
        <dc:format>image/svg+xml</dc:format>
        <dc:type
           rdf:resource="http://purl.org/dc/dcmitype/StillImage" />
        <dc:title></dc:title>
      </cc:Work>
    </rdf:RDF>
  </metadata>
  <sodipodi:namedview
     pagecolor="#ffffff"
     bordercolor="#666666"
     borderopacity="1"
     objecttolerance="10"
     gridtolerance="10"
     guidetolerance="10"
     inkscape:pageopacity="0"
     inkscape:pageshadow="2"
     inkscape:window-width="1313"
     inkscape:window-height="835"
     id="namedview13"
     showgrid="false"
     inkscape:zoom="0.51127775"
     inkscape:cx="146.18809"
     inkscape:cy="236.32897"
     inkscape:window-x="0"
     inkscape:window-y="24"
     inkscape:window-maximized="0"
     inkscape:current-layer="svg1923" />
  <defs
     id="defs1926" />
  <path
     style="fill:#f2f2f2;fill-opacity:1;stroke:none"
     d="M 366.5,29.90625 C 180.619,29.90625 29.947415,180.61888 30,366.5 29.947415,552.38112 180.619,703.09375 366.5,703.09375 552.381,703.09375 703.05259,552.38112 703,366.5 703.05259,180.61888 552.381,29.90625 366.5,29.90625 z m 109.0625,138.5 c 21.36397,-0.26467 41.65566,6.26221 60.5,17.84375 25.49984,17.19035 44.95962,48.88323 50.34375,82.0625 1.9157,11.80534 1.90876,32.61272 0,44.375 -1.607,9.90274 -5.79007,26.50896 -8.09375,30.125 l -100.28125,0.15625 c -93.11985,0 -98.9119,-0.10388 -99.78125,-1.75 -1.8124,-3.43177 -6.05309,-18.13376 -7.75,-26.84375 -4.93091,-28.85537 -0.12505,-57.254 11.78125,-83.6875 14.81473,-29.6307 40.71827,-51.22983 71.5625,-59.6875 7.341,-1.6645 14.59743,-2.50553 21.71875,-2.59375 z m -319.875,0.3125 c 7.70764,-0.0154 15.49611,0.82994 23.125,2.34375 14.77922,4.21884 27.74491,11.73664 39.625,22.9375 17.56074,16.55673 29.97124,39.58159 36.03125,66.875 3.07839,19.81531 3.94137,40.92966 -0.4375,60.625 l -6.34375,20.96875 -85.40625,0.21875 c -46.96149,0.13064 -85.878929,-0.0948 -86.5,-0.5 -12.956675,-25.8852 -12.638784,-57.18047 -8.5,-85.09375 5.88152,-27.43727 18.400237,-52.18305 34.59375,-68.46875 14.91946,-14.23717 34.1152,-19.8668 53.8125,-19.90625 z m -2.03125,17.90625 c -0.80778,0.0225 -1.56954,0.059 -2.3125,0.125 -42.30945,4.68734 -57.981619,40.01268 -66.5625,77.6875 -2.923643,16.81439 -0.573395,53.00588 3.78125,58.25 1.660089,1.99917 143.93235,1.90701 145.59375,-0.0937 4.63049,-5.57629 5.92979,-39.78582 2.1875,-57.4375 -3.36063,-15.85134 -4.1854,-16.62206 -10.625,-9.96875 -13.51761,13.9662 -38.16775,13.63273 -51.375,-0.6875 -14.85211,-17.75534 -12.23374,-40.7657 5.4375,-54.9375 3.43301,-2.27813 5.49616,-4.3281 5.3125,-5.28125 -0.70135,-3.6398 -19.32077,-7.99365 -31.4375,-7.65625 z m 323.90625,0.0312 c -42.01624,0.47636 -80.30594,34.37418 -88.9375,83.84375 -2.65904,15.23964 -0.0259,43.17136 3.84375,53.34375 L 477.875,324 c 70.01203,0 86.01032,-0.2648 86.90625,-1.34375 3.9882,-4.80281 6.19187,-33.48083 3.78125,-49.09375 -2.02065,-13.08719 -5.21328,-23.46875 -7.25,-23.46875 -0.85112,0 -3.50957,2.00499 -5.875,4.4375 -17.40441,17.89789 -47.578,13.26814 -58.53125,-8.96875 -7.3231,-15.4065 -3.50234,-30.97215 8.0625,-42.5 4.2859,-4.17633 7.52062,-8.06702 7.15625,-8.65625 -0.36437,-0.58923 -4.0433,-2.18911 -8.15625,-3.5625 -8.81127,-2.94225 -17.6859,-4.28637 -26.40625,-4.1875 z m -390.25,218.21875 240.375,0 240.34375,0 c 6.10014,12.92366 9.52768,26.8806 12.4375,40.8125 C 594.21069,539.74673 542.94472,591.99297 466.5,639.15625 422.41166,661.64561 374.12341,668.17715 325.28125,665.375 203.72306,644.40892 131.2895,549.97825 112.53125,431.84375 l 0.34375,-7.5 -24.96875,-1 z m 46,22.5 c -2.01341,55.11011 38.29037,117.13108 73.46875,156.875 21.72176,23.9039 48.509,40.92015 78,51.96875 1.07355,-5.1008 17.50256,-77.00985 93.625,-94.96875 8.24846,-1.94599 16.19863,-2.87399 23.8125,-3 61.99866,-1.02612 101.875,51.75 101.875,51.75 0,0 0.0506,0.60947 5.875,-4.71875 27.60704,-24.78458 46.33267,-56.61422 51.5,-87.5 3.35497,-20.05307 0.29793,-57.10705 -5.75,-69.71875 z"
     id="path3161"
     inkscape:connector-curvature="0"
     sodipodi:nodetypes="scscsscssccscccsscscccccccssccssssccssssccssssccssscccccccccccccssccscc" />
</svg>
